<?xml version="1.0" encoding="utf-8"?>
<!-- Generator: Adobe Illustrator 19.0.0, SVG Export Plug-In . SVG Version: 6.00 Build 0)  -->
<svg version="1.1" id="Calque_1" xmlns="http://www.w3.org/2000/svg" xmlns:xlink="http://www.w3.org/1999/xlink" x="0px" y="0px"
	 viewBox="-377 253.5 85.1 88.8" style="enable-background:new -377 253.5 85.1 88.8;" xml:space="preserve">
<style type="text/css">
	.st0{fill:#1D1D1B;}
	.st1{fill:none;stroke:#1D1D1B;stroke-width:5;stroke-linecap:round;stroke-miterlimit:10;}
</style>
<g>
	<polygon points="-547,671.4 -547,689.4 -601,689.4 -601,671.4 -610,671.4 -610,698.4 -538,698.4 -538,671.4 	"/>
	<polygon points="-556,653.4 -565,653.4 -565,626.4 -583,626.4 -583,653.4 -592,653.4 -574,680.4 	"/>
</g>
<path id="XMLID_37_" class="st0" d="M-358.9,284.2c0,0-4.1,17.6,0.2,26.7c4.1,2.6,18.1,1.5,18.1,1.5s15.7,15.3,20.6,15.7
	c0,0,1.5-0.5,1.9-2.5c-0.1-2.1-0.1-53.8-0.1-53.8s0.4-5.1-4.5-3c-5,2.1-17.1,12.7-19.2,14.9C-345.1,283.7-358.9,284.2-358.9,284.2z"
	/>
<path id="XMLID_53_" class="st1" d="M-312.3,288.6c0,0,7.9,11.3-0.3,20"/>
</svg>
