<?xml version="1.0" encoding="utf-8"?>
<!-- Generator: Adobe Illustrator 19.0.0, SVG Export Plug-In . SVG Version: 6.00 Build 0)  -->
<svg version="1.1" id="Calque_1" xmlns="http://www.w3.org/2000/svg" xmlns:xlink="http://www.w3.org/1999/xlink" x="0px" y="0px"
	 viewBox="-377 253.5 85.1 88.8" style="enable-background:new -377 253.5 85.1 88.8;" xml:space="preserve">
<style type="text/css">
	.st0{fill:#1D1D1B;}
</style>
<g>
	<polygon points="-924,924.9 -924,942.9 -978,942.9 -978,924.9 -987,924.9 -987,951.9 -915,951.9 -915,924.9 	"/>
	<polygon points="-933,906.9 -942,906.9 -942,879.9 -960,879.9 -960,906.9 -969,906.9 -951,933.9 	"/>
</g>
<path class="st0" d="M-334.2,265.8c-19,0-34.4,15.4-34.4,34.4s15.4,34.4,34.4,34.4s34.4-15.4,34.4-34.4S-315.1,265.8-334.2,265.8z
	 M-353.2,325.3c0-6.7,4.8-12.4,11.6-15c-3.8-3-6.3-8-6.3-13.8c0-9.2,6.4-16.6,14.3-16.6c7.9,0,14.3,7.4,14.3,16.6
	c0,5.7-2.5,10.8-6.3,13.8c6.9,2.6,11.7,8.3,11.7,15H-353.2z"/>
</svg>
