<?xml version="1.0" encoding="utf-8"?>
<!-- Generator: Adobe Illustrator 19.0.0, SVG Export Plug-In . SVG Version: 6.00 Build 0)  -->
<svg version="1.1" id="Calque_1" xmlns="http://www.w3.org/2000/svg" xmlns:xlink="http://www.w3.org/1999/xlink" x="0px" y="0px"
	 viewBox="-377 253.5 85.1 88.8" style="enable-background:new -377 253.5 85.1 88.8;" xml:space="preserve">
<style type="text/css">
	.st0{fill:none;stroke:#1D1D1B;stroke-width:5;stroke-linecap:round;stroke-miterlimit:10;}
</style>
<g>
	<polygon points="-547,671.4 -547,689.4 -601,689.4 -601,671.4 -610,671.4 -610,698.4 -538,698.4 -538,671.4 	"/>
	<polygon points="-556,653.4 -565,653.4 -565,626.4 -583,626.4 -583,653.4 -592,653.4 -574,680.4 	"/>
</g>
<path id="XMLID_23_" class="st0" d="M-298.1,295c0-13.8-15.9-25-35.5-25c-19.6,0-35.5,11.2-35.5,25c0,13.8,15.9,25,35.5,25
	c5.9,0,11.5-1,16.4-2.8l7.6,5.9l-1.2-8.9C-303.1,309.6-298.1,302.7-298.1,295z"/>
</svg>
