<?xml version="1.0" encoding="utf-8"?>
<!-- Generator: Adobe Illustrator 19.0.0, SVG Export Plug-In . SVG Version: 6.00 Build 0)  -->
<svg version="1.1" id="Calque_1" xmlns="http://www.w3.org/2000/svg" xmlns:xlink="http://www.w3.org/1999/xlink" x="0px" y="0px"
	 viewBox="-377 253.5 85.1 88.8" style="enable-background:new -377 253.5 85.1 88.8;" xml:space="preserve">
<style type="text/css">
	.st0{fill:none;stroke:#1D1D1B;stroke-width:5;stroke-linecap:round;stroke-miterlimit:10;}
</style>
<g>
	<polygon points="-547,671.4 -547,689.4 -601,689.4 -601,671.4 -610,671.4 -610,698.4 -538,698.4 -538,671.4 	"/>
	<polygon points="-556,653.4 -565,653.4 -565,626.4 -583,626.4 -583,653.4 -592,653.4 -574,680.4 	"/>
</g>
<path id="XMLID_42_" class="st0" d="M-347.7,283.6c0,0,3.9-16.7,22.9-13c19,3.8,15.9,22.3,12.6,29.7c-3.4,7.4-8.1,13.1-11.5,20.8
	c-3.4,7.7-8.9,10.8-14.8,8.5s-6.6-9-6.6-9"/>
<path id="XMLID_43_" class="st0" d="M-322.8,300.7c0,0,11.5-15.1-4-19.8c-8.9-2.8-18.5,10.1-8.4,17.8c4.4,4,3.2,11.8-1.9,16.1"/>
</svg>
