<?xml version="1.0" encoding="utf-8"?>
<!-- Generator: Adobe Illustrator 19.0.0, SVG Export Plug-In . SVG Version: 6.00 Build 0)  -->
<svg version="1.1" id="Calque_1" xmlns="http://www.w3.org/2000/svg" xmlns:xlink="http://www.w3.org/1999/xlink" x="0px" y="0px"
	 viewBox="-377 253.5 85.1 88.8" style="enable-background:new -377 253.5 85.1 88.8;" xml:space="preserve">
<style type="text/css">
	.st0{fill:none;stroke:#1D1D1B;stroke-width:4;stroke-linecap:round;stroke-miterlimit:10;}
</style>
<g>
	<polygon points="-547,671.4 -547,689.4 -601,689.4 -601,671.4 -610,671.4 -610,698.4 -538,698.4 -538,671.4 	"/>
	<polygon points="-556,653.4 -565,653.4 -565,626.4 -583,626.4 -583,653.4 -592,653.4 -574,680.4 	"/>
</g>
<path id="XMLID_60_" class="st0" d="M-362.2,282.1l-0.1,31.3c0,0-0.3,6.4,10.5,6.4c10.7,0,42.4-0.3,42.4-0.3s6.6,0.1,6.2-7.2
	c-0.4-7.4,0-29,0-29s0-6.2-9.3-6.3c-9.3-0.1-42.8-0.4-42.8-0.4S-361,276.3-362.2,282.1z"/>
<line id="XMLID_61_" class="st0" x1="-340.1" y1="276.5" x2="-340.1" y2="320.6"/>
</svg>
