<?xml version="1.0" encoding="utf-8"?>
<!-- Generator: Adobe Illustrator 19.0.0, SVG Export Plug-In . SVG Version: 6.00 Build 0)  -->
<svg version="1.1" id="Calque_1" xmlns="http://www.w3.org/2000/svg" xmlns:xlink="http://www.w3.org/1999/xlink" x="0px" y="0px"
	 viewBox="-377 253.5 85.1 88.8" style="enable-background:new -377 253.5 85.1 88.8;" xml:space="preserve">
<style type="text/css">
	.st0{fill:none;stroke:#1D1D1B;stroke-width:4;stroke-linecap:round;stroke-miterlimit:10;}
</style>
<g>
	<polygon points="-924,924.9 -924,942.9 -978,942.9 -978,924.9 -987,924.9 -987,951.9 -915,951.9 -915,924.9 	"/>
	<polygon points="-933,906.9 -942,906.9 -942,879.9 -960,879.9 -960,906.9 -969,906.9 -951,933.9 	"/>
</g>
<path class="st0" d="M-325.3,308.3c7.1,2.7,12.5,8.1,14,14.7h15.2c0-7.2-5.1-13.3-12.4-16c4.1-3.2,6.7-8.6,6.7-14.7
	c0-9.8-6.8-17.7-15.2-17.7c-2.2,0-4.2,0.5-6.1,1.5c3.5,3.8,5.7,9.1,5.7,15.1C-317.5,298.3-320.6,304.6-325.3,308.3z"/>
<path class="st0" d="M-345.1,308.4c-4.8-3.7-7.9-10-7.9-17.2c0-6.2,2.4-11.7,6.1-15.5c-1.7-0.7-3.4-1.1-5.3-1.1
	c-8.4,0-15.2,7.9-15.2,17.7c0,6.1,2.7,11.5,6.8,14.7c-7.3,2.7-12.4,8.9-12.4,16h14C-357.5,316.5-352.2,311-345.1,308.4z"/>
<path class="st0" d="M-323.2,276.1c-3.2-3.4-7.4-5.5-12-5.5c-4.5,0-8.6,1.9-11.7,5.1"/>
<path class="st0" d="M-325.6,307"/>
<path class="st0" d="M-343.7,307"/>
</svg>
