<?xml version="1.0" encoding="utf-8"?>
<!-- Generator: Adobe Illustrator 19.0.0, SVG Export Plug-In . SVG Version: 6.00 Build 0)  -->
<svg version="1.1" id="Calque_1" xmlns="http://www.w3.org/2000/svg" xmlns:xlink="http://www.w3.org/1999/xlink" x="0px" y="0px"
	 viewBox="-377 253.5 85.1 88.8" style="enable-background:new -377 253.5 85.1 88.8;" xml:space="preserve">
<style type="text/css">
	.st0{fill:none;stroke:#1D1D1B;stroke-width:4;stroke-linecap:round;stroke-miterlimit:10;}
</style>
<g>
	<polygon points="-924,924.9 -924,942.9 -978,942.9 -978,924.9 -987,924.9 -987,951.9 -915,951.9 -915,924.9 	"/>
	<polygon points="-933,906.9 -942,906.9 -942,879.9 -960,879.9 -960,906.9 -969,906.9 -951,933.9 	"/>
</g>
<rect id="XMLID_33_" x="-361.9" y="263.1" class="st0" width="56.6" height="71.1"/>
<line id="XMLID_36_" class="st0" x1="-355.6" y1="275.8" x2="-331.7" y2="275.8"/>
<line id="XMLID_54_" class="st0" x1="-356" y1="285.8" x2="-320.8" y2="285.8"/>
<line id="XMLID_56_" class="st0" x1="-356" y1="295.7" x2="-320.8" y2="295.7"/>
<line id="XMLID_57_" class="st0" x1="-356" y1="305" x2="-320.8" y2="305"/>
<line id="XMLID_58_" class="st0" x1="-356" y1="314" x2="-320.8" y2="314"/>
<line id="XMLID_59_" class="st0" x1="-356" y1="324" x2="-320.8" y2="324"/>
</svg>
