<?xml version="1.0" encoding="utf-8"?>
<!-- Generator: Adobe Illustrator 19.0.0, SVG Export Plug-In . SVG Version: 6.00 Build 0)  -->
<svg version="1.1" id="Calque_1" xmlns="http://www.w3.org/2000/svg" xmlns:xlink="http://www.w3.org/1999/xlink" x="0px" y="0px"
	 viewBox="-377 253.5 85.1 88.8" style="enable-background:new -377 253.5 85.1 88.8;" xml:space="preserve">
<g>
	<polygon points="-547,671.4 -547,689.4 -601,689.4 -601,671.4 -610,671.4 -610,698.4 -538,698.4 -538,671.4 	"/>
	<polygon points="-556,653.4 -565,653.4 -565,626.4 -583,626.4 -583,653.4 -592,653.4 -574,680.4 	"/>
</g>
<g>
	<path d="M-361.7,262.8h61.1l0.6,18.4h-2.6c-1.3-5.8-2.9-9.5-4.8-11.3c-2-1.7-6.1-2.6-12.3-2.6h-6v55.3c0,4.2,0.6,6.7,2,7.7
		c1.3,1,4.2,1.7,8.5,2v2h-31.5v-2c4.6-0.4,7.4-1.1,8.5-2.3c1.1-1.2,1.7-4.1,1.7-8.7v-54h-6.1c-6,0-10.1,0.9-12.2,2.6
		c-2.2,1.7-3.8,5.5-4.9,11.3h-2.6L-361.7,262.8z"/>
</g>
</svg>
