<?xml version="1.0" encoding="utf-8"?>
<!-- Generator: Adobe Illustrator 19.0.0, SVG Export Plug-In . SVG Version: 6.00 Build 0)  -->
<svg version="1.1" id="Calque_1" xmlns="http://www.w3.org/2000/svg" xmlns:xlink="http://www.w3.org/1999/xlink" x="0px" y="0px"
	 viewBox="-377 253.5 85.1 88.8" style="enable-background:new -377 253.5 85.1 88.8;" xml:space="preserve">
<style type="text/css">
	.st0{fill:none;stroke:#1D1D1B;stroke-width:4;stroke-miterlimit:10;}
	.st1{fill:#1D1D1B;}
</style>
<g>
	<polygon points="-547,671.4 -547,689.4 -601,689.4 -601,671.4 -610,671.4 -610,698.4 -538,698.4 -538,671.4 	"/>
	<polygon points="-556,653.4 -565,653.4 -565,626.4 -583,626.4 -583,653.4 -592,653.4 -574,680.4 	"/>
</g>
<path id="XMLID_38_" class="st0" d="M-359.5,299.2c0,0,8-17.5,27.9-17.1c19.9,0.4,27.9,17.3,28,17.6c0.1,0.2-7.5,18.3-27.3,18.1
	C-350.7,317.5-359.5,299.2-359.5,299.2z"/>
<circle id="XMLID_39_" class="st1" cx="-331.4" cy="300.1" r="8.4"/>
<circle id="XMLID_40_" class="st0" cx="-331.5" cy="299.8" r="16.7"/>
</svg>
